# xmcd
#
# Track frame offsets: 
#        150
#        22580
#        51130
#        65075
#        94180
#        107257
#        130670
#        156292
#        188812
#        218462
#        242957
#        268680
#        285855
#        311099
#        333062
#
# Disc length: 4728 seconds
#
# Revision: 0
# Processed by: cddbd v1.5.2PL0 Copyright (c) Steve Scherf et al.
# Submitted via: ExactAudioCopy v0.99pb5
#
DISCID=c312760f
DTITLE=Vargas Blues Band - Texas Tango
DYEAR=2010
DGENRE=Blues
TTITLE0=Rose On The Water
TTITLE1=Blues Pilgramige
TTITLE2=Texas Tango
TTITLE3=Love Ain´t Gut Nowhere To Go
TTITLE4=Ride Baby Ride
TTITLE5=Black Cat Boogie
TTITLE6=1969
TTITLE7=Ridin´ High
TTITLE8=Thinking Of You
TTITLE9=Buenos Aires Blues
TTITLE10=Big Boss Man
TTITLE11=153
TTITLE12=Blood Shot
TTITLE13=Knocked Out With The Blues
TTITLE14=Take Me Down South
EXTD=
EXTT0=
EXTT1=
EXTT2=
EXTT3=
EXTT4=
EXTT5=
EXTT6=
EXTT7=
EXTT8=
EXTT9=
EXTT10=
EXTT11=
EXTT12=
EXTT13=
EXTT14=
PLAYORDER=
